# xmcd
#
# Track frame offsets: 
#        150
#        10902
#        24202
#        35155
#        48860
#        62867
#        76936
#        90377
#        101988
#        115866
#        128501
#        141473
#        152192
#        164333
#        177969
#        189690
#        201396
#        213128
#        227991
#        241588
#        255769
#        269242
#        280163
#
# Disc length: 3911 seconds
#
# Revision: 0
# Processed by: cddbd v1.5.2PL0 Copyright (c) Steve Scherf et al.
# Submitted via: ExactAudioCopy v1.0b3
#
DISCID=400f4517
DTITLE=Etta James - I Just Want to Make Love to You
DYEAR=1961
DGENRE=Blues
TTITLE0=Boy of My Dreams
TTITLE1=All I Could Do Was Cry
TTITLE2=Tough Mary
TTITLE3=My Dearest Darling
TTITLE4=Let Me Know
TTITLE5=I Just Want to Make Love to You
TTITLE6=If I Can't Have You
TTITLE7=My Heart Cries
TTITLE8=Plum Nuts
TTITLE9=Spoonful
TTITLE10=It's a Crying Shame
TTITLE11=Nobody But You
TTITLE12=I'll Dry My Tears
TTITLE13=Seven Day Fool
TTITLE14=Anything to Say You're Mine
TTITLE15=In My Diary
TTITLE16=You Can Count on Me
TTITLE17=A Sunday Kind of Love
TTITLE18=At Last
TTITLE19=Stormy Weather
TTITLE20=Trust in Me
TTITLE21=Don't Cry Baby
TTITLE22=Fool That I am
EXTD=
EXTT0=
EXTT1=
EXTT2=
EXTT3=
EXTT4=
EXTT5=
EXTT6=
EXTT7=
EXTT8=
EXTT9=
EXTT10=
EXTT11=
EXTT12=
EXTT13=
EXTT14=
EXTT15=
EXTT16=
EXTT17=
EXTT18=
EXTT19=
EXTT20=
EXTT21=
EXTT22=
PLAYORDER=
